<?xml version="1.0" encoding="utf-8"?>
<!-- Generator: Adobe Illustrator 27.1.1, SVG Export Plug-In . SVG Version: 6.00 Build 0)  -->
<svg version="1.1" id="b" xmlns="http://www.w3.org/2000/svg" xmlns:xlink="http://www.w3.org/1999/xlink" x="0px" y="0px"
	 viewBox="0 0 348.9 348.9" style="enable-background:new 0 0 348.9 348.9;" xml:space="preserve">
<style type="text/css">
	.st0{fill:url(#SVGID_1_);}
	.st1{fill:url(#SVGID_00000181804091642635556850000013685895292071754888_);}
	.st2{fill:#FFFFFF;}
</style>
<g>
	<linearGradient id="SVGID_1_" gradientUnits="userSpaceOnUse" x1="30.5954" y1="174.4504" x2="318.3047" y2="174.4504">
		<stop  offset="4.868091e-03" style="stop-color:#F16522"/>
		<stop  offset="1" style="stop-color:#F89C3E"/>
	</linearGradient>
	<circle class="st0" cx="174.5" cy="174.5" r="143.9"/>
	
		<linearGradient id="SVGID_00000127046424818318182740000004032759801004135586_" gradientUnits="userSpaceOnUse" x1="0.3457" y1="174.45" x2="348.5543" y2="174.45">
		<stop  offset="5.182161e-03" style="stop-color:#005494"/>
		<stop  offset="1" style="stop-color:#659AD1"/>
	</linearGradient>
	<path style="fill:url(#SVGID_00000127046424818318182740000004032759801004135586_);" d="M174.5,348.6
		c-96,0-174.1-78.1-174.1-174.1c0-96,78.1-174.1,174.1-174.1c96,0,174.1,78.1,174.1,174.1C348.6,270.5,270.5,348.6,174.5,348.6z
		 M174.5,13.2c-88.9,0-161.3,72.4-161.3,161.3c0,88.9,72.4,161.3,161.3,161.3c88.9,0,161.3-72.4,161.3-161.3
		C335.7,85.5,263.4,13.2,174.5,13.2z"/>
	<g>
		<path class="st2" d="M138.5,201.4h-15.2l-10.7-0.1c-1.2,0-2-1.2-1.5-2.3l5.4-13.3l6.1-15.2l6.5-15.8c0.6-1.4,2.5-1.4,3.1,0
			l6.5,15.8l6.1,15.2l5.4,13.3c0.4,1.1-0.3,2.3-1.5,2.3L138.5,201.4z"/>
		<path class="st2" d="M268.7,95.4C257,83.9,242,78.2,223.6,78.2H182c-1.6,0-2.8,1.3-2.8,2.8V151c0,2.3-3.1,2.9-4,0.8L145,80.9
			c-0.5-1.2-1.7-2.1-3.1-2.1h-21.5c-1.4,0-2.6,0.8-3.1,2.1L68,196.7c-0.9,2.2,0.7,4.7,3.1,4.7h22.4c1.4,0,2.6-0.8,3.1-2.1l10-24.6
			l10.5-25.9l10.6-25.8c1.1-2.8,5.1-2.8,6.2,0l10.6,25.8l10.5,25.9l10,24.6c0.5,1.3,1.8,2.1,3.1,2.1H182h9.2h32.4
			c18.4,0,33.5-5.7,45.1-17.2c11.7-11.4,17.5-26.3,17.5-44.4C286.2,121.6,280.4,106.8,268.7,95.4z M247.8,165.6
			c-6,6.3-14.3,9.4-24.7,9.4h-12.7c-1.4,0-2.6-1.2-2.6-2.6v-65.2c0-1.5,1.2-2.6,2.6-2.6H223c10.4,0,18.7,3.1,24.7,9.4
			c6,6.3,9.1,14.9,9.1,25.8C256.8,150.7,253.8,159.3,247.8,165.6z"/>
	</g>
	<g>
		<g>
			<g>
				<path class="st2" d="M83.1,215.6c4.4,0,7.7,1.1,10.1,3.2c2.4,2.1,3.6,5.1,3.6,9c0,3.9-1.2,6.9-3.6,9.1
					c-2.4,2.1-5.7,3.2-10.1,3.2h-4.8v8.6c0,0.5-0.2,0.7-0.7,0.7h-7.8c-0.5,0-0.7-0.2-0.7-0.7v-32.4c0-0.5,0.2-0.7,0.7-0.7H83.1z
					 M83,231.5c2.8,0,4.2-1.2,4.2-3.7c0-2.4-1.4-3.7-4.2-3.7h-4.7v7.3H83z"/>
				<path class="st2" d="M113.2,250.1c-4.3,0-7.6-0.9-10-2.8c-2.4-1.9-3.7-4.5-4.1-8c-0.1-0.5,0.2-0.8,0.7-0.8h7.7
					c0.4,0,0.7,0.2,0.8,0.7c0.5,1.9,2,2.9,4.8,2.9c2.9,0,4.4-0.9,4.4-2.8c0-1.6-1.3-2.6-3.9-3l-4.6-0.7c-6.5-1-9.8-4.3-9.8-9.9
					c0-3.3,1.2-5.9,3.5-7.9c2.3-1.9,5.7-2.9,10-2.9c4.2,0,7.5,0.9,9.8,2.8c2.3,1.9,3.6,4.5,3.9,7.9c0,0.5-0.2,0.7-0.7,0.7h-7.8
					c-0.4,0-0.7-0.2-0.8-0.7c-0.3-1.8-1.8-2.7-4.4-2.7c-2.9,0-4.3,0.9-4.3,2.7c0,0.7,0.3,1.3,1,1.7c0.6,0.4,1.8,0.7,3.5,0.9l4.6,0.7
					c6.2,0.9,9.3,4.2,9.3,10c0,3.6-1.2,6.4-3.6,8.3C120.9,249.2,117.5,250.1,113.2,250.1z"/>
				<path class="st2" d="M142.9,215.6c5,0,9.1,1.6,12.3,4.7c3.2,3.1,4.8,7.2,4.8,12.2c0,5-1.6,9.1-4.8,12.2
					c-3.2,3.1-7.3,4.7-12.3,4.7h-12.3c-0.5,0-0.7-0.2-0.7-0.7v-32.4c0-0.5,0.2-0.7,0.7-0.7H142.9z M142.7,240.8
					c2.4,0,4.2-0.7,5.6-2.2c1.4-1.5,2.1-3.5,2.1-6.1s-0.7-4.6-2.1-6.1c-1.4-1.5-3.3-2.2-5.6-2.2h-3.5v16.6H142.7z"/>
				<path class="st2" d="M192.4,250.1c-5.2,0-9.4-1.7-12.8-5.1c-3.4-3.4-5.1-7.6-5.1-12.5c0-5,1.7-9.1,5.1-12.5
					c3.4-3.4,7.6-5.1,12.8-5.1c4.4,0,8.2,1.3,11.3,3.8c3.2,2.5,5.1,5.9,5.8,10.3c0.1,0.5-0.2,0.8-0.7,0.8h-8.1
					c-0.4,0-0.7-0.2-0.8-0.6c-1-3.7-3.5-5.5-7.5-5.5c-2.6,0-4.6,0.8-6.1,2.4c-1.5,1.6-2.3,3.8-2.3,6.5c0,2.7,0.8,4.9,2.3,6.5
					c1.5,1.6,3.6,2.4,6.1,2.4c4,0,6.5-1.8,7.5-5.5c0.1-0.4,0.4-0.6,0.8-0.6h8.1c0.5,0,0.7,0.3,0.7,0.8c-0.7,4.4-2.6,7.8-5.8,10.3
					C200.6,248.9,196.8,250.1,192.4,250.1z"/>
				<path class="st2" d="M226.1,215.6c5,0,9.1,1.6,12.3,4.7c3.2,3.1,4.8,7.2,4.8,12.2c0,5-1.6,9.1-4.8,12.2
					c-3.2,3.1-7.3,4.7-12.3,4.7h-12.3c-0.5,0-0.7-0.2-0.7-0.7v-32.4c0-0.5,0.2-0.7,0.7-0.7H226.1z M225.9,240.8
					c2.4,0,4.2-0.7,5.6-2.2c1.4-1.5,2.1-3.5,2.1-6.1s-0.7-4.6-2.1-6.1c-1.4-1.5-3.3-2.2-5.6-2.2h-3.5v16.6H225.9z"/>
				<path class="st2" d="M259,250.1c-4.3,0-7.6-0.9-10-2.8c-2.4-1.9-3.7-4.5-4.1-8c-0.1-0.5,0.2-0.8,0.7-0.8h7.7
					c0.4,0,0.7,0.2,0.8,0.7c0.5,1.9,2,2.9,4.8,2.9c2.9,0,4.4-0.9,4.4-2.8c0-1.6-1.3-2.6-3.9-3l-4.6-0.7c-6.5-1-9.8-4.3-9.8-9.9
					c0-3.3,1.2-5.9,3.5-7.9c2.3-1.9,5.7-2.9,10-2.9c4.2,0,7.5,0.9,9.8,2.8c2.3,1.9,3.6,4.5,3.9,7.9c0,0.5-0.2,0.7-0.7,0.7h-7.8
					c-0.4,0-0.7-0.2-0.8-0.7c-0.3-1.8-1.8-2.7-4.4-2.7c-2.9,0-4.3,0.9-4.3,2.7c0,0.7,0.3,1.3,1,1.7c0.6,0.4,1.8,0.7,3.5,0.9l4.6,0.7
					c6.2,0.9,9.3,4.2,9.3,10c0,3.6-1.2,6.4-3.6,8.3C266.7,249.2,263.3,250.1,259,250.1z"/>
			</g>
		</g>
		<g>
			<line class="st2" x1="171.7" y1="215.1" x2="164.3" y2="249.7"/>
			
				<rect x="150.3" y="231.1" transform="matrix(0.2084 -0.978 0.978 0.2084 -94.3572 348.2873)" class="st2" width="35.4" height="2.7"/>
		</g>
	</g>
</g>
</svg>
