<svg width="128" height="128" viewBox="0 0 128 128" fill="none" xmlns="http://www.w3.org/2000/svg">
<path fill-rule="evenodd" clip-rule="evenodd" d="M63.8202 7C31.5692 7 5.41003 33.1592 5.41003 65.4102C5.41003 91.211 22.2522 113.07 45.1863 120.954C48.0531 121.312 49.1281 119.52 49.1281 118.087C49.1281 116.654 49.1281 113.07 49.1281 108.053C33.0026 111.637 29.4191 100.17 29.4191 100.17C26.9107 93.3611 22.9689 91.5694 22.9689 91.5694C17.5938 87.9859 23.3273 87.9859 23.3273 87.9859C29.0608 88.3443 32.2859 94.0778 32.2859 94.0778C37.6611 103.036 45.903 100.528 49.1281 99.0946C49.4865 95.1528 51.2782 92.6444 52.7116 91.211C39.8111 89.7776 26.194 84.7608 26.194 62.1851C26.194 55.7349 28.3441 50.7181 32.2859 46.4179C31.9276 45.3429 29.7775 39.251 33.0026 31.3674C33.0026 31.3674 38.0194 29.9341 49.1281 37.4593C53.7866 36.0259 58.8034 35.6676 63.8202 35.6676C68.8371 35.6676 73.8539 36.3843 78.5124 37.4593C89.6211 29.9341 94.6379 31.3674 94.6379 31.3674C97.863 39.251 95.7129 45.3429 95.3546 46.7763C98.938 50.7181 101.446 56.0932 101.446 62.5434C101.446 85.1192 87.8293 89.7776 74.9289 91.211C77.079 93.0027 78.8707 96.5862 78.8707 101.961C78.8707 109.845 78.8707 115.937 78.8707 118.087C78.8707 119.52 79.9458 121.312 82.8125 120.954C106.105 113.07 122.589 91.211 122.589 65.4102C122.23 33.1592 96.0713 7 63.8202 7Z" fill="#1F2026"/>
</svg>
