<svg width="17" height="18" viewBox="0 0 17 18" fill="none" xmlns="http://www.w3.org/2000/svg">
<path d="M6.427 13.4478C6.4272 14.4105 7.27393 15.9749 8.52393 15.9749C8.71143 15.9749 9.02393 15.8498 9.19264 15.4476L11.5289 10.0439L13.2765 10.0439C14.2416 10.0439 15.0239 9.26105 15.0239 8.29534L15.0239 3.70536C15.0239 2.73965 14.2416 1.95679 13.2765 1.95679L3.73184 1.95679C2.87513 1.95679 2.14477 2.57828 2.00711 3.4244L1.04704 9.32581C0.873973 10.3896 1.69463 11.3553 2.77177 11.3553L5.92716 11.3553C6.20332 11.3553 6.42718 11.5795 6.42716 11.856L6.427 13.4478Z" stroke="white" stroke-width="2"/>
<path d="M11.5234 10.0924L11.5234 1.95679" stroke="white" stroke-width="2"/>
</svg>
