<svg width="16" height="16" viewBox="0 0 16 16" fill="none" xmlns="http://www.w3.org/2000/svg">
<path d="M9.59693 3.52384C9.59673 2.56244 8.75 1 7.5 1C7.3125 1 7 1.12494 6.8313 1.52668L4.49507 6.92333L2.74743 6.92333C1.78235 6.92333 0.999999 7.70517 0.999999 8.66963L0.999998 13.2537C0.999998 14.2181 1.78235 14.9999 2.74742 14.9999L12.2921 15C13.1488 15 13.8792 14.3793 14.0168 13.5342L14.9769 7.64049C15.1499 6.57804 14.3293 5.61361 13.2522 5.61361L11.6865 5.61361C10.5324 5.61361 9.59681 4.67796 9.59693 3.52384V3.52384Z" stroke="white" stroke-width="2"/>
<path d="M4.5 6.875L4.5 15" stroke="white" stroke-width="2"/>
</svg>
