<svg width="688" height="688" viewBox="0 0 688 688" fill="none" xmlns="http://www.w3.org/2000/svg">
<rect width="688" height="688"/>
<path d="M335.924 127.185L308.74 74.3834C308.631 74.1643 308.384 74 308.138 74C307.892 74 307.645 74.1369 307.536 74.3834L296.093 96.6215L284.65 74.3834C284.541 74.1643 284.294 74 284.048 74C283.802 74 283.555 74.1369 283.446 74.3834L272.003 96.6215L260.56 74.3834C260.451 74.1643 260.204 74 259.958 74C259.712 74 259.465 74.1369 259.356 74.3834L247.913 96.6215L236.47 74.3834C236.361 74.1643 236.114 74 235.868 74C235.621 74 235.375 74.1369 235.266 74.3834L208.082 127.185C207.973 127.377 207.973 127.623 208.082 127.815L235.238 180.617C235.348 180.836 235.594 181 235.84 181C236.087 181 236.333 180.863 236.443 180.617L247.885 158.379L259.328 180.617C259.438 180.836 259.684 181 259.931 181C260.177 181 260.423 180.863 260.533 180.617L271.976 158.379L283.418 180.617C283.528 180.836 283.774 181 284.021 181C284.267 181 284.513 180.863 284.623 180.617L296.066 158.379L307.508 180.617C307.618 180.836 307.864 181 308.111 181C308.357 181 308.603 180.863 308.713 180.617L335.869 127.815C336.033 127.596 336.033 127.377 335.924 127.185ZM284.048 76.1909L295.326 98.1003L284.048 120.01L272.769 98.1003L284.048 76.1909ZM256.262 127.788L259.164 133.457L247.885 155.366L233.568 127.486L247.913 99.6066L259.191 121.516L256.29 127.185C256.18 127.377 256.18 127.596 256.262 127.788ZM257.658 127.486L259.958 122.995L262.257 127.486L259.958 131.978L257.658 127.486ZM263.626 127.788C263.736 127.596 263.736 127.349 263.626 127.158L260.724 121.489L272.003 99.5792L283.281 121.489L280.38 127.158C280.27 127.349 280.27 127.596 280.38 127.788L283.281 133.457L272.003 155.366L260.724 133.457L263.626 127.788ZM281.748 127.486L284.048 122.995L286.347 127.486L284.048 131.978L281.748 127.486ZM287.744 127.788C287.853 127.596 287.853 127.349 287.744 127.158L284.842 121.489L296.12 99.5792L310.437 127.486L296.093 155.366L284.814 133.457L287.744 127.788ZM259.958 76.1909L271.236 98.1003L259.958 120.01L248.679 98.1003L259.958 76.1909ZM235.868 178.782L209.478 127.486L235.868 76.1909L247.146 98.1003L232.2 127.158C232.09 127.349 232.09 127.596 232.2 127.788L247.146 156.845L235.868 178.782ZM259.958 178.782L248.679 156.872L259.958 134.963L271.236 156.872L259.958 178.782ZM284.048 178.782L272.769 156.872L284.048 134.963L295.326 156.872L284.048 178.782ZM308.138 178.782L296.859 156.872L311.806 127.815C311.916 127.623 311.916 127.377 311.806 127.185L296.859 98.1277L308.138 76.2183L334.528 127.486L308.138 178.782Z" fill="#1F2026"/>
<path d="M352 64L416 127.741H352V64Z" fill="#1F2026"/>
<path d="M416 64L480 127.741H416V64Z" fill="#1F2026"/>
<path d="M352 128.258L416 192H352V128.258Z" fill="#1F2026"/>
<path d="M416 128.258L480 192H416V128.258Z" fill="#1F2026"/>
<path d="M192 271.335C192 271.113 192 270.892 192 270.67C192 265.667 191.303 260.79 190.005 256.198C182.943 228.521 157.799 208 128 208C92.7224 208 64 236.722 64 272C64 307.278 92.6908 336 128 336C162.328 336 190.417 308.829 191.937 274.882C191.968 274.628 191.968 274.407 191.968 274.153C192 273.742 192 273.33 192 272.918C192 272.823 192 272.728 192 272.633C192 272.443 192 272.253 192 272.063C192 271.778 192 271.557 192 271.335ZM190.385 272.222C190.353 273.457 190.258 274.692 190.132 275.927C188.707 284.16 181.486 290.462 172.841 290.462C163.151 290.462 155.297 282.577 155.297 272.918C155.297 263.26 163.183 255.375 172.841 255.375C182.12 255.375 189.752 262.626 190.353 271.747C190.385 271.873 190.385 272.032 190.385 272.222ZM172.873 253.76C162.328 253.76 153.746 262.341 153.746 272.887C153.746 283.432 162.328 292.014 172.873 292.014C178.858 292.014 184.21 289.259 187.725 284.92C183.196 294.611 173.348 301.324 161.948 301.324C146.272 301.324 133.51 288.562 133.51 272.887C133.51 257.211 146.272 244.449 161.948 244.449C173.316 244.449 183.165 251.163 187.725 260.853C184.21 256.515 178.858 253.76 172.873 253.76ZM161.948 242.866C145.385 242.866 131.927 256.325 131.927 272.887C131.927 289.449 145.385 302.907 161.948 302.907C171.131 302.907 179.396 298.759 184.906 292.204C177.971 303.984 165.114 311.933 150.484 311.933C128.475 311.933 110.551 294.009 110.551 272C110.551 249.991 128.475 232.067 150.484 232.067C167.299 232.067 181.74 242.518 187.598 257.275C182.31 248.629 172.81 242.866 161.948 242.866ZM150.484 230.484C127.588 230.484 108.968 249.104 108.968 272C108.968 294.896 127.588 313.516 150.484 313.516C162.898 313.516 174.013 308.038 181.645 299.392C172.366 313.168 156.627 322.256 138.799 322.256C110.33 322.256 87.1806 299.107 87.1806 270.638C87.1806 242.169 110.33 219.02 138.799 219.02C160.871 219.02 179.776 232.954 187.123 252.493C180.125 239.414 166.318 230.484 150.484 230.484ZM128 334.417C93.5774 334.417 65.5834 306.423 65.5834 272C65.5834 237.577 93.5774 209.583 128 209.583C148.457 209.583 166.634 219.464 178.003 234.696C168.281 224.087 154.284 217.437 138.799 217.437C109.443 217.437 85.5972 241.314 85.5972 270.638C85.5972 299.962 109.475 323.84 138.799 323.84C159.097 323.84 176.768 312.408 185.73 295.687C176.388 318.393 154.031 334.417 128 334.417Z" fill="#1F2026"/>
<path d="M272 208C236.64 208 208 236.676 208 272V336H239.73C239.73 318.176 254.176 303.73 272 303.73C289.824 303.73 304.27 318.176 304.27 336H336V272C336 236.64 307.36 208 272 208Z" fill="#1F2026"/>
<path d="M352 208V335.963H392.019V261.346C392.019 248.093 402.747 237.364 416 237.364C429.253 237.364 439.981 248.093 439.981 261.346V336H480V208H352Z" fill="#1F2026"/>
<path d="M624 293.861C624 270.252 605.266 251.005 581.841 250.228V208C558.237 208 538.995 226.738 538.218 250.169H496C496 273.778 514.734 293.025 538.159 293.802V336C561.763 336 581.005 317.262 581.782 293.831H624V293.861Z" fill="#1F2026"/>
<path d="M192 411.059H132.956V352H123.044V411.059H64V420.941H123.044V480H132.956V420.941H192V411.059Z" fill="#1F2026"/>
<path d="M479.689 389.227L442.704 352.242C442.532 352.069 442.325 352 442.083 352H389.813C389.572 352 389.365 352.104 389.192 352.242L352.242 389.227C352.069 389.399 352 389.606 352 389.848V442.152C352 442.394 352.104 442.601 352.242 442.773L389.227 479.758C389.399 479.931 389.606 480 389.848 480H442.152C442.394 480 442.601 479.896 442.773 479.758L479.758 442.773C479.931 442.601 480 442.394 480 442.152V389.813C479.931 389.606 479.862 389.365 479.689 389.227ZM478.206 441.738L441.738 478.206H390.193L353.725 441.738V390.193L390.193 353.725H441.772L478.24 390.193V441.738H478.206Z" fill="#1F2026"/>
<path d="M437.701 362.626H394.23C393.988 362.626 393.781 362.73 393.609 362.868L362.868 393.609C362.695 393.781 362.626 393.988 362.626 394.23V437.701C362.626 437.943 362.73 438.15 362.868 438.322L393.609 469.063C393.781 469.236 393.988 469.305 394.23 469.305H437.701C437.943 469.305 438.15 469.201 438.322 469.063L469.063 438.322C469.236 438.15 469.305 437.943 469.305 437.701V394.23C469.305 393.988 469.201 393.781 469.063 393.609L438.322 362.868C438.15 362.695 437.943 362.626 437.701 362.626ZM467.58 437.356L437.356 467.58H394.575L364.352 437.356V394.575L394.609 364.317H437.391L467.649 394.575V437.356H467.58Z" fill="#1F2026"/>
<path d="M433.32 373.253H398.611C398.37 373.253 398.163 373.356 397.99 373.494L373.494 398.025C373.322 398.197 373.253 398.404 373.253 398.646V433.32C373.253 433.561 373.356 433.768 373.494 433.941L398.025 458.471C398.197 458.644 398.404 458.713 398.646 458.713H433.32C433.561 458.713 433.768 458.609 433.941 458.471L458.471 433.941C458.644 433.768 458.713 433.561 458.713 433.32V398.611C458.713 398.37 458.609 398.163 458.471 397.99L433.906 373.494C433.768 373.322 433.527 373.253 433.32 373.253ZM456.953 432.94L432.94 456.953H398.991L374.978 432.94V398.991L398.991 374.978H432.94L456.953 398.991V432.94Z" fill="#1F2026"/>
<path d="M428.903 383.879H403.027C402.786 383.879 402.579 383.983 402.406 384.121L384.121 402.407C383.948 402.579 383.879 402.786 383.879 403.028V428.904C383.879 429.145 383.983 429.352 384.121 429.525L402.406 447.81C402.579 447.983 402.786 448.052 403.027 448.052H428.903C429.145 448.052 429.352 447.948 429.524 447.81L447.81 429.525C447.983 429.352 448.052 429.145 448.052 428.904V403.028C448.052 402.786 447.948 402.579 447.81 402.407L429.524 384.121C429.352 383.983 429.145 383.879 428.903 383.879ZM446.327 428.559L428.558 446.327H403.407L385.604 428.559V403.407L403.407 385.604H428.558L446.361 403.407V428.559H446.327Z" fill="#1F2026"/>
<path d="M424.487 394.506H407.444C407.202 394.506 406.995 394.609 406.823 394.747L394.747 406.823C394.575 406.995 394.506 407.202 394.506 407.444V424.488C394.506 424.729 394.609 424.936 394.747 425.109L406.823 437.184C406.995 437.357 407.202 437.426 407.444 437.426H424.487C424.729 437.426 424.936 437.322 425.108 437.184L437.184 425.109C437.356 424.936 437.425 424.729 437.425 424.488V407.444C437.425 407.202 437.322 406.995 437.184 406.823L425.108 394.747C424.936 394.609 424.729 394.506 424.487 394.506ZM435.7 424.143L424.142 435.7H407.789L396.231 424.143V407.789L407.789 396.231H424.142L435.7 407.789V424.143Z" fill="#1F2026"/>
<path d="M612.999 392.496C597.723 360.895 572.24 344.328 556.056 355.472C551.203 358.801 547.76 364.261 545.694 371.104C532.921 359.1 518.896 354.986 508.628 362.092C492.444 373.236 491.724 407.903 507.001 439.504C522.277 471.105 547.76 487.672 563.944 476.528C568.797 473.199 572.24 467.739 574.306 460.896C587.079 472.9 601.104 477.014 611.372 469.908C627.556 458.764 628.276 424.097 612.999 392.496Z" fill="#1F2026"/>
<path d="M272 560C272 560 258.345 536.821 253.255 528.18C242.902 510.607 226.117 510.607 215.764 528.18C205.412 545.754 205.412 574.246 215.765 591.82C226.117 609.393 242.902 609.393 253.255 591.82C258.517 582.887 272 560 272 560ZM272 560C272 560 285.655 583.179 290.745 591.82C301.098 609.393 317.883 609.393 328.236 591.82C338.588 574.246 338.588 545.754 328.235 528.18C317.883 510.607 301.098 510.607 290.745 528.18C285.483 537.113 272 560 272 560ZM272 560C272 560 282.853 578.422 286.898 585.29C295.127 599.257 308.467 599.257 316.695 585.29C324.923 571.323 324.923 548.677 316.695 534.71C308.467 520.743 295.127 520.743 286.898 534.71C282.716 541.81 272 560 272 560ZM272 560C272 560 280.458 574.358 283.611 579.71C290.024 590.595 300.421 590.595 306.834 579.71C313.246 568.824 313.246 551.176 306.834 540.29C300.421 529.405 290.024 529.405 283.611 540.29C280.352 545.823 272 560 272 560ZM272 560C272 560 266.381 550.461 264.286 546.905C260.025 539.673 253.118 539.673 248.857 546.905C244.597 554.137 244.597 565.863 248.857 573.095C253.118 580.327 260.025 580.327 264.286 573.095C266.451 569.419 272 560 272 560ZM272 560C272 560 277.619 569.539 279.714 573.095C283.975 580.327 290.882 580.327 295.143 573.095C299.403 565.863 299.403 554.137 295.143 546.905C290.882 539.673 283.975 539.673 279.714 546.905C277.549 550.581 272 560 272 560ZM272 560C272 560 261.147 541.578 257.102 534.71C248.873 520.743 235.533 520.743 227.305 534.71C219.077 548.677 219.077 571.323 227.305 585.29C235.533 599.257 248.873 599.257 257.102 585.29C261.284 578.19 272 560 272 560ZM272 560C272 560 263.542 545.642 260.389 540.29C253.976 529.405 243.579 529.405 237.166 540.29C230.754 551.176 230.754 568.824 237.166 579.71C243.579 590.595 253.976 590.595 260.389 579.71C263.648 574.177 272 560 272 560Z" stroke="#1F2026"/>
<path d="M352 505V567.79V615H372.624V567.79H387.804V615H408.428V567.79H423.572V615H444.196V567.79H459.376V615H480V567.79V505H352Z" fill="#1F2026"/>
</svg>
