<svg width="20" height="20" viewBox="0 0 20 20" fill="none" xmlns="http://www.w3.org/2000/svg">
<g clip-path="url(#clip0_154_1817)">
<path d="M15.7812 1.25C17.4208 1.25 18.75 2.57916 18.75 4.21875C18.75 5.85835 17.4208 7.1875 15.7812 7.1875C14.1417 7.1875 12.8125 5.85835 12.8125 4.21875C12.8125 2.57916 14.1417 1.25 15.7812 1.25Z" stroke="#1F2026" stroke-width="2"/>
<path d="M4.21875 7.03125C5.85834 7.03125 7.1875 8.36041 7.1875 10C7.1875 11.6396 5.85834 12.9688 4.21875 12.9688C2.57915 12.9688 1.25 11.6396 1.25 10C1.25 8.3604 2.57915 7.03125 4.21875 7.03125Z" stroke="#1F2026" stroke-width="2"/>
<path d="M17.2654 18.3518C15.8457 19.1715 14.0303 18.6851 13.2107 17.2654C12.391 15.8457 12.8774 14.0303 14.2971 13.2107C15.7168 12.391 17.5322 12.8774 18.3518 14.2971C19.1715 15.7168 18.6851 17.5322 17.2654 18.3518Z" stroke="#1F2026" stroke-width="2"/>
<path d="M13.125 5.54688L6.875 8.67188M13.125 14.4531L6.875 11.3281" stroke="#1F2026" stroke-width="2"/>
</g>
<defs>
<clipPath id="clip0_154_1817">
<rect width="20" height="20" fill="white"/>
</clipPath>
</defs>
</svg>
