<svg width="21" height="20" viewBox="0 0 21 20" fill="none" xmlns="http://www.w3.org/2000/svg">
<g clip-path="url(#clip0_154_690)">
<path d="M9.66521 2.14657C9.95393 1.36781 11.0461 1.36781 11.3348 2.14657L12.9612 6.5334C13.0864 6.87125 13.3998 7.10087 13.757 7.11661L18.3962 7.32107C19.2198 7.35736 19.5573 8.40498 18.9121 8.92258L15.2781 11.8382C14.9983 12.0628 14.8786 12.4343 14.9741 12.7819L16.2149 17.2951C16.4352 18.0963 15.5516 18.7437 14.8642 18.2849L10.9919 15.7C10.6937 15.5009 10.3063 15.5009 10.0081 15.7L6.1358 18.2849C5.44838 18.7437 4.56481 18.0963 4.78508 17.2951L6.02587 12.7819C6.12143 12.4343 6.00174 12.0628 5.72187 11.8382L2.08786 8.92257C1.44274 8.40498 1.78023 7.35736 2.60379 7.32106L7.24295 7.11661C7.60023 7.10086 7.91358 6.87125 8.03884 6.5334L9.66521 2.14657Z" stroke="#1F2026" stroke-width="2"/>
</g>
<defs>
<clipPath id="clip0_154_690">
<rect width="20" height="20" fill="white" transform="translate(0.5)"/>
</clipPath>
</defs>
</svg>
