<svg xmlns="http://www.w3.org/2000/svg" version="1.1" xmlns:xlink="http://www.w3.org/1999/xlink" xmlns:svgjs="http://svgjs.dev/svgjs" width="1000" height="1000"><g clip-path="url(#SvgjsClipPath1250)"><rect width="1000" height="1000" fill="#ffe8c2"></rect><g transform="matrix(5.46875,0,0,5.46875,150,150)"><svg xmlns="http://www.w3.org/2000/svg" version="1.1" xmlns:xlink="http://www.w3.org/1999/xlink" xmlns:svgjs="http://svgjs.dev/svgjs" width="128" height="128"><svg width="128" height="128" viewBox="0 0 128 128" fill="none" xmlns="http://www.w3.org/2000/svg">
<rect x="21.8333" y="21.8335" width="84.3333" height="84.3333" stroke="#1F2026"></rect>
<path d="M124.405 107.06C120.754 103.408 68.259 64 68.259 64C68.259 64 120.754 24.592 124.405 20.9403C129.198 16.1474 129.198 8.38752 124.405 3.59465C119.612 -1.19822 111.853 -1.19822 107.06 3.59465C103.408 7.24636 64 59.7784 64 59.7784C64 59.7784 24.592 7.24636 20.9403 3.59465C16.1474 -1.19822 8.38752 -1.19822 3.59465 3.59465C-1.19822 8.38752 -1.19822 16.1474 3.59465 20.9403C7.24636 24.592 59.741 64 59.741 64C59.741 64 7.24636 103.408 3.59465 107.06C-1.19822 111.853 -1.19822 119.612 3.59465 124.405C8.38752 129.198 16.1474 129.198 20.9403 124.405C24.592 120.754 64 68.2216 64 68.2216C64 68.2216 103.408 120.754 107.06 124.405C111.853 129.198 119.612 129.198 124.405 124.405C129.198 119.612 129.198 111.853 124.405 107.06Z" fill="#1F2026"></path>
</svg></svg></g></g><defs><clipPath id="SvgjsClipPath1250"><rect width="1000" height="1000" x="0" y="0" rx="350" ry="350"></rect></clipPath></defs></svg>